<?xml version="1.0" encoding="UTF-8"?>
<svg version="1.1" viewBox="0 0 2048 2048" width="512" height="512" xmlns="http://www.w3.org/2000/svg">
<path transform="translate(953)" d="m0 0h932l28 7 16 6 21 11 15 11 13 12 8 8 12 16 9 16 7 15 6 19 3 17 1 11v841l-2 19-5 19-5 14-8 16-8 13-10 13-11 12-8 7-15 11-18 10-20 8-21 5-15 2-46 1h-478l-1 7-8 17-8 11-9 10-21 21-2 3v7l15 33 11 29 5 12 2 2 7 1 45 1 17 4 12 5 15 10 9 8 10 13 8 15 5 17 1 8v134l-2 13-4 13-7 14-8 11-12 12-13 8-13 6-16 4-7 1-46 1-4 4-12 32-13 30-5 11v7l10 11 6 5 7 8 9 9 7 10 8 16 4 13 1 6v24l-4 18-8 16-6 9-9 10-7 8-6 6h-2v2h-2v2h-2v2h-2v2h-2v2l-7 6-1 2h-2v2h-2v2h-2v2h-2v2h-2v2h-2l-2 4h-2l-2 4h-2l-2 4h-2l-2 4-20 20h-2l-1 3-11 9-14 9-16 6-14 3h-22l-17-4-14-6-13-9-12-11-20-20-4-3-7 1-28 13-34 13-12 5-2 6-1 45-3 16-6 15-8 13-9 10-10 9-14 8-15 6-12 3h-143l-20-6-14-7-13-10-9-9-10-15-5-11-4-14-1-6-1-47-2-6-41-16-34-15-1-1h-5l-12 11-21 21-13 9-15 7-15 4-5 1h-22l-14-3-15-6-10-6-10-8-92-92-7-10-8-16-4-13-2-15 1-16 4-17 8-17 10-13 28-28 3-5-3-10-12-26-9-23-8-21-2-2-49-1-16-3-15-6-10-6-10-8-8-8-9-13-7-14-4-15-1-8v-136l3-15 5-13 8-14 9-10 5-5 8-7 16-9 17-5 6-1 49-1 5-3 5-12 9-24 11-25 7-15-1-5-9-10-15-15-15-5-20-6-28-10-25-11-32-16-22-13-15-10-14-10-16-12-14-12-11-10-8-7-21-21-7-8-9-10-13-17-10-13-14-21-11-18-10-18-12-24-14-34-9-28-7-26-7-36-3-23-2-24v-60l3-30 4-27 6-28 8-29 11-32 13-30 12-24 14-24 20-30 10-13 18-22 11-12 10-10 5-6 8-7 8-8 11-9 13-11 19-14 13-9 19-12 23-13 26-13 32-13 37-12 29-7 27-5 24-3 24-2h54l33 3 32 5 27 6 25 7 24 8 27 11 29 14 22 12 22 14 20 14 15 11 2 1-1-2v-70l1-117 4-22 5-16 7-17 8-14 10-14 11-12 11-11 18-13 18-10 25-9zm-103 1279-22 3-21 6-15 6-15 8-17 12-12 11-12 12-13 18-8 14-10 25-5 22-2 22 1 22 3 17 4 15 6 16 11 21 12 16 11 12 7 7 13 10 14 9 16 8 18 7 23 5 8 1h32l19-3 21-6 20-9 18-11 11-9 10-9 8-8 10-13 10-16 8-17 7-21 3-15 2-21-1-22-4-22-8-24-12-23-10-14-13-15-11-10-17-12-18-10-21-8-16-4-22-3z" fill="#062A73"/>
<path transform="translate(973,79)" d="m0 0h889l14 1 16 4 16 8 6 4v2l4 2 9 9 9 14 6 15 2 8 1 13v824l-2 15-4 12-8 15-11 13-10 8-12 7-11 4-8 2-12 1-472 1h-58l-8-7-86-86-13-9-12-6-16-5-7-1h-23l-19 5-16 8-14 11-25 25-5 4-7-1-26-12-33-13-14-5-4-4-1-46-3-18-5-14-6-11-9-11-11-10-1-5 3-8 7-28 5-27 4-34 1-25v-25l-1-30-4-37-6-31-8-31-12-36-11-26-9-19-9-16-6-12-6-9-7-11-9-13-10-14-2-5v-263l5-19 9-17 12-13 8-7 16-9 12-4z" fill="#FCC853"/>
<path transform="translate(800,916)" d="m0 0h123l5 4 1 2 1 37 2 20 5 16 7 14 8 10 9 9 13 9 15 7 32 12 38 17 14 4 6 1h23l16-4 12-5 14-9 14-12 18-18 7-5 5 1 24 22 58 58 8 11-1 5-11 12-17 17-12 16-7 14-4 15-1 7v21l4 17 9 21 9 20 14 37 8 15 7 9 9 9 13 9 12 6 14 4 17 2 40 1 6 5v125l-2 4-5 2-42 1-19 3-14 5-14 8-13 11-9 12-8 16-16 40-8 18-7 16-4 15-1 6v21l4 18 5 12 8 12 9 11 24 24 3 6-2 6-11 11-1 2h-2l-2 4-22 22-8 7-39 39-5 3-5-1-13-12-18-18-14-10-16-8-16-4-10-1h-9l-14 2-15 5-33 15-37 14-16 8-14 11-10 12-8 14-5 14-2 12-2 51-3 4-4 1h-123l-5-4-1-3-1-39-2-18-5-16-7-13-7-9-8-9-13-9-16-8-30-11-29-13-20-8-17-3h-12l-14 2-15 5-13 7-14 11-25 25-6 4-5-1-10-9-77-77-3-5 1-5 9-10 20-20 9-12 5-8 6-15 4-20v-10l-3-19-8-20-13-29-13-34-6-12-8-11-8-9-14-10-15-7-16-4-9-1-44-1-5-4-1-4v-121l3-5 4-2 38-1 18-2 16-5 12-6 12-9 10-10 9-14 6-13 10-27 11-25 8-18 5-19 1-8v-10l-3-17-6-16-8-13-9-11-24-24-4-6 2-7 7-8 6-5 6-7 6-5 6-7 6-5 6-7 6-5 6-7 6-5 6-7 8-7 11-11 3-2 6 1 10 9 18 18 14 11 16 8 16 5 6 1h22l17-4 25-11 28-12 22-8 16-8 11-8 11-11 9-14 5-11 4-17 1-9 1-43 4-5zm50 363-22 3-21 6-15 6-15 8-17 12-12 11-12 12-13 18-8 14-10 25-5 22-2 22 1 22 3 17 4 15 6 16 11 21 12 16 11 12 7 7 13 10 14 9 16 8 18 7 23 5 8 1h32l19-3 21-6 20-9 18-11 11-9 10-9 8-8 10-13 10-16 8-17 7-21 3-15 2-21-1-22-4-22-8-24-12-23-10-14-13-15-11-10-17-12-18-10-21-8-16-4-22-3z" fill="#90B1F3"/>
<path transform="translate(502,305)" d="m0 0h19l45 4 37 7 26 7 31 11 29 13 19 10 21 13 12 8 16 12 16 13 20 18 11 11v2h2v2h2l7 8 13 16 12 16 12 18 8 13 13 24 11 24 10 27 8 27 6 26 4 24 3 37v35l-2 23-4 28-5 24-8 29-1 1-103 1-15 3-13 5-11 6-11 9-8 8-7 10-8 16-4 15-1 10-1 45-5 5-22 8-29 12-23 11-6-1-22-22-8-7-10-8-10-6-15-6-13-3-7-1h-10l-18 3-15 5-12 7-10 8-93 93-9 14-5 10-2 5-3 1-36-16-23-12-21-13-19-13-8-6v-2l-5-2v-2l-5-2-7-7-8-7-24-24v-2h-2l-7-8-12-14-14-19-14-22-14-25-9-19-10-25-8-24-8-31-6-36-3-36v-28l3-35 4-26 6-27 8-27 8-22 5-12 7-15 9-17 8-14 11-17 8-11 9-12 9-11 12-14 29-29 22-18h2v-2l9-6 17-12 13-8 18-10 16-8 17-8 27-10 27-8 26-6 27-4 22-2z" fill="#FDFDFD"/>
<path transform="translate(893,150)" d="m0 0h1v143l9 3 29 13 17 8 23 13 20 13 17 12 16 13 11 9 17 16 18 18 7 8 14 17 14 19 11 17 10 16-1 2-12 5-10 9-6 11-2 9v11l3 10 7 10 7 8 6 5 7 8 19 19 8 7 9 6 7 3 5 1 2 3 5 28 4 35 1 16v60l-4 7h-4l-12-12-10-8-11-5-4-1h-13l-11 4-9 6-8 11-3 8-1 7v9l3 10 6 9 9 10 38 38 13 8 12 3 10-1 11-4 9-7 12-11 16-16 3-4h2l1-3 5-4 6-1 23 5 12 5 11 7 13 11 114 114 8 7 14 14 7 8 10 15 6 13 4 16 1 6v14l-2 16-1 2-77 1h-58l-8-7-86-86-13-9-12-6-16-5-7-1h-23l-19 5-16 8-14 11-25 25-5 4-7-1-26-12-33-13-14-5-4-4-1-46-3-18-5-14-6-11-9-11-11-10-1-5 3-8 7-28 5-27 4-34 1-25v-25l-1-30-4-37-6-31-8-31-12-36-11-26-9-19-9-16-6-12-6-9-7-11-9-13-10-14-2-5z" fill="#FC8F05"/>
<path transform="translate(910,651)" d="m0 0h1l3 29 1 16v35l-2 23-4 28-5 24-8 29-1 1-103 1-15 3-13 5-11 6-11 9-8 8-7 10-8 16-4 15-1 10-1 45-5 5-22 8-29 12-23 11-6-1-22-22-8-7-10-8-10-6-15-6-13-3-7-1h-10l-18 3-15 5-12 7-10 8-93 93-9 14-5 10-2 5-3 1-36-16-23-12-21-13-19-13-8-6v-2l-5-2v-2l-5-2-7-7 3-1 12 10 3 1-6-7-8-6-1-3h-2l-6-7-8-7v-2l-4-2v-2h-2l-7-9-5-5 2-7 69-69h2l2-4h2v-2h2v-2h2v-2h2v-2h2l2-4 44-44 12-9 16-8 11-3h23l13 4 14 7 10 8 12 11 30 30 11 8 14 7 14 4h20l15-4 30-13 15-7 27-11 37-14 14-7 11-9 7-8 8-14 4-11 2-16 1-66 2-10 5-12 7-11 10-11 13-9 8-4 15-4 9-1 122-1 6 1z" fill="#CED8FC"/>
<path transform="translate(846,1199)" d="m0 0h27l22 2 25 5 20 6 20 8 23 12 17 11 12 9 14 12 18 18 11 14 10 14 12 21 9 19 7 20 6 22 4 26 1 12v24l-3 26-5 24-9 27-8 18-11 20-13 19-11 13-11 12-10 10-11 9-15 11-18 11-17 9-26 10-22 6-23 4-24 2h-12l-18-1-29-5-25-7-20-8-16-8-16-9-17-12-13-11-12-11-14-15-13-17-11-17-11-21-9-23-6-20-4-20-2-16v-44l4-27 4-17 8-23 11-24 13-22 13-17 9-10 7-8 10-10 11-9 13-10 14-9 16-9 17-8 22-8 24-6 20-3zm4 80-22 3-21 6-15 6-15 8-17 12-12 11-12 12-13 18-8 14-10 25-5 22-2 22 1 22 3 17 4 15 6 16 11 21 12 16 11 12 7 7 13 10 14 9 16 8 18 7 23 5 8 1h32l19-3 21-6 20-9 18-11 11-9 10-9 8-8 10-13 10-16 8-17 7-21 3-15 2-21-1-22-4-22-8-24-12-23-10-14-13-15-11-10-17-12-18-10-21-8-16-4-22-3z" fill="#062A73"/>
<path transform="translate(501,451)" d="m0 0h16l11 4v2h3v2l4 1 7 8 6 12 1 5v206h83l9 2 8 3v2h3v2l5 2 7 9 4 8 1 4v17l-5 12-10 11h-3v2l-5 1v2l-9 3-5 1h-123l-12-2-11-6-7-6-4-6-1-5h-2l-2-6-1-7v-247l3-12 5-9 7-7 10-6z" fill="#25A3CE"/>
<path transform="translate(1489,240)" d="m0 0h298l15 2 10 4 12 11 5 10 2 8v12l-3 10-7 11-8 7-12 5-6 1-56 1h-198l-62-1-11-4-9-6-7-8-5-11-1-5v-11l3-11 4-8 5-6 11-7 10-3z" fill="#FEFEFE"/>
<path transform="translate(1482,731)" d="m0 0h309l13 2 10 5 9 8 6 12 2 8v12l-4 12-6 8-9 8-10 4-8 2h-308l-12-2-12-6-9-9-5-10-2-7v-11l3-12 6-10 9-8 12-5z" fill="#FEFEFE"/>
<path transform="translate(1481,486)" d="m0 0h314l12 3 10 6 7 7 5 10 2 8v12l-3 11-7 10-8 7-8 4-15 3h-301l-15-2-10-5-10-9-7-14-1-5v-11l4-13 6-9 8-7 8-4z" fill="#FEFEFE"/>
<path transform="translate(1272,193)" d="m0 0 11 1 12 5 8 6 6 8 4 10 1 5v13l-4 11-10 13-92 92-14 9-12 3-11-1-11-5-11-8-43-43-7-10-4-9v-17l4-11 6-9 8-7 12-5 5-1 13 1 10 4 11 7 15 15 8-7 56-56 12-9 10-4z" fill="#FEFEFE"/>
<path transform="translate(1267,439)" d="m0 0h14l10 3 9 6 5 5 4 5 4 10 1 5v13l-4 11-8 11-96 96-13 8-17 2-12-4-10-6-7-6v-2l-4-2-24-24v-2l-4-2v-2l-3-1-7-8-7-10-3-10v-11l3-11 6-10 7-7 12-6 6-2h11l12 4 11 8 7 7 6 5 2 3 4-1 67-67 11-6z" fill="#FEFEFE"/>
<path transform="translate(1268,684)" d="m0 0h13l11 4 9 6 7 8 5 11 1 5v14l-5 12-8 10-53 53-7 6-7 8-23 23-13 10-11 4-10 1-12-3-10-6-10-9-39-39-7-10-3-7-1-5v-9l2-10 5-10 8-9 11-6 7-2h13l11 4 9 6 13 12 5 5 3-1 7-8 58-58 11-7z" fill="#FDFDFD"/>
<path transform="translate(590,960)" d="m0 0 7 1 11 9 20 20 7 4h5v3l-6 3-6-1-22-22-8-7-6-8z" fill="#EEF3FC"/>
<path transform="translate(210,985)" d="m0 0 4 2 14 14 8 7 6 8-4-2-28-28z" fill="#ACC5F7"/>
<path transform="translate(896,826)" d="m0 0h1l-1 9h-5v-5z" fill="#EBF2FB"/>
<path transform="translate(710,958)" d="m0 0h1v9l-6 1 1-4z" fill="#F7F9FD"/>
</svg>
